<?xml version="1.0" encoding="UTF-8"?><svg id="Layer_2" xmlns="http://www.w3.org/2000/svg" viewBox="0 0 720 720"><defs><style>.cls-1{fill:#fff;}.cls-2{fill:#12b560;}</style></defs><g id="Layer_1-2"><rect class="cls-1" width="720" height="720"/><path class="cls-2" d="m149.42,322.73c-.42-.03-.84-.03-1.26-.03-8.87,0-18.26,4.81-23.21,12.01l-.83,1.2-.28-10.7h-16.4v70.98h17.06v-36.71c0-14.48,9.15-21.08,17.65-21.08,9.22,0,13.7,6.88,13.7,21.03v36.76h17.04v-44.3c0-17.76-8.56-28.39-23.47-29.16Z"/><rect class="cls-2" x="72" y="325.2" width="17.06" height="70.98"/><path class="cls-2" d="m233.26,322.82c-.42-.03-.84-.03-1.27-.03-8.9,0-18.28,4.78-23.19,11.93l-.83,1.2-.28-10.7h-16.4v70.98h17.06v-36.71c0-14.42,9.15-20.99,17.65-20.99,9.22,0,13.7,6.88,13.7,21.03v36.67h17.04v-44.22c0-17.75-8.56-28.38-23.47-29.16Z"/><rect class="cls-2" x="275.13" y="325.2" width="17.06" height="70.98"/><path class="cls-2" d="m343.64,353.93c-1.32-.34-2.63-.67-3.96-.97-5.25-1.2-14.04-3.22-13.42-9.58.51-5.11,6.38-6.93,11.71-6.93,6.38,0,14.63,3.18,20.24,7.77l7.79-11c-4.69-5.09-16.57-10.44-27.26-10.44-14.75.09-23.57,4.45-27.79,13.73-2.07,4.57-2.15,10.55-.19,15.61,1.62,4.19,6.79,8.67,12.29,10.67,5.28,1.91,10.62,3.61,16.07,4.93,4.29,1.04,9.63,2.33,11.14,6.45.77,2.1.4,5.94-2.84,7.91-7.77,4.72-21.65,1.88-31.74-6.44l-8.28,11.01c6.58,6.71,17.88,10.86,29.62,10.86,15.23,0,24.38-4.68,28.81-14.73,2-4.53,2.23-12.46-.88-17.36-4.65-7.33-13.14-9.45-21.34-11.49Z"/><polygon class="cls-2" points="382.84 396.19 399.91 396.19 399.91 369.72 431.57 369.72 431.57 356.68 399.91 356.68 399.91 339.55 434.69 339.55 434.69 325.19 382.84 325.19 382.84 396.19"/><path class="cls-2" d="m465.66,335.29l-.82,1.38-.41-11.45h-16.46v70.98h16.89v-37.11c0-10.54,6.3-18.08,16.04-19.2,4.51-.55,8.95.01,13.82,1.68l.06-17.13c-1.75-.41-3.76-.69-6.11-.73-14.19,0-20.9,8.07-23.01,11.58Z"/><path class="cls-2" d="m535.05,322.5h-.09c-10.08,0-18.75,3.34-25.1,9.67-6.57,6.56-10.19,16.11-10.19,26.89-.13,11.54,3.36,21.25,10.11,28.07,6.43,6.5,15.61,10.09,25.84,10.09,12.18,0,21.37-3.22,29.75-10.44l-7.8-11.36c-5.56,4.44-10.78,7.82-20.66,7.82l-1.62-.03c-9.83-.35-17.95-7.74-18.87-17.2l-.05-.53h51.59c1.42-13.08-1.76-25.05-8.74-32.89-5.86-6.58-14.22-10.07-24.19-10.08Zm16.6,30.17h-35.1l.04-.51c.76-10.01,10.3-16.21,18.36-16.01,4.7.12,9.36,1.74,12.54,5.31,2.6,2.92,4.16,6.81,4.16,10.73v.48Z"/><path class="cls-2" d="m638.93,332.58c-5.86-6.58-14.22-10.07-24.19-10.08h-.09c-10.08,0-18.75,3.34-25.1,9.67-6.57,6.56-10.19,16.11-10.19,26.89-.13,11.54,3.36,21.25,10.11,28.07,6.43,6.5,15.61,10.09,25.84,10.09,12.18,0,21.37-3.22,29.75-10.44l-7.8-11.36c-5.56,4.44-10.78,7.82-20.66,7.82-.53,0-1.06,0-1.62-.03-9.83-.35-17.95-7.74-18.87-17.2l-.05-.53h51.59c1.42-13.08-1.76-25.05-8.74-32.89Zm-7.59,20.08h-35.1l.04-.51c.76-10.01,10.3-16.21,18.36-16.01,4.7.12,9.36,1.74,12.54,5.31,2.6,2.92,4.16,6.81,4.16,10.73v.48Z"/></g></svg>