<?xml version="1.0" encoding="utf-8"?>
<!-- Generator: Adobe Illustrator 24.2.2, SVG Export Plug-In . SVG Version: 6.00 Build 0)  -->
<svg version="1.1" id="Layer_1" xmlns="http://www.w3.org/2000/svg" xmlns:xlink="http://www.w3.org/1999/xlink" x="0px" y="0px"
	 viewBox="0 0 512 148" style="enable-background:new 0 0 512 148;" xml:space="preserve">
<style type="text/css">
	.st0{fill:#3C552A;}
</style>
<g>
	<g>
		<path class="st0" d="M351.8,0c-7.9-0.2-16.4,3.7-24.6,11.4c-7.7,7.3-20.4,25-25.3,48.7c-6.6,32-5.1,49-13.9,69.8
			c-2.7,6.5-6,12.6-9.5,15.7c-3.8,3.5-0.6,3.2,3.8-0.6c17.2-14.9,31.5-38.5,38.3-66.8c6.2-25.4,3.7-45.1,8.5-58.7
			c-4,6.4-9.2,19.2-11.9,33.1c-5.2,26.1-4.8,32.6-14.9,53.1c0,0-0.3,0.5-0.4,0.4c-0.1-0.1,0.5-1.2,0.5-1.2
			c7.1-16.8,6.8-30.5,12.3-56.5c4-19.3,12-31.6,15.3-35.2c3.9-4.1,7.5-6.9,12.3-8.1c5.9-1.5,8.8-0.6,12.1,0.7
			c1.4,0.5,2.3,0.4,3.3-1.1C360.2,1.3,356,0.1,351.8,0z"/>
		<path class="st0" d="M320.5,52.6h15.9c0.4,0,0.5,0.4,0.4,0.7l-0.3,1.7c-0.3,1.8-1,2-1.8,2h-14.8"/>
		<path class="st0" d="M305.4,57.1h-13.1c-0.7,0-0.7-1.3-0.5-2.9c0.2-1.4,0.7-1.6,1.8-1.6h12.5"/>
		<path class="st0" d="M441.4,90.2l1.6,2.4L430.2,99c-5.7,2.9-10.3,4.2-14.3,4.2c-11.8,0-14.4-10.9-14.4-18.2
			c0-16.2,17.7-33.6,37.5-33.6c6.5,0,9.5,3,9.5,8.9c0,9.7-15.6,19.6-35.6,15.6c-2.9,10.3-0.1,21,10.5,21
			C428.7,96.9,435.5,93.7,441.4,90.2z M413.8,73.5c21.3,3.3,25.9-9.2,25.9-15.1c0-2.7-2.2-4.6-4-4.6
			C426.2,53.8,415.5,66.3,413.8,73.5z"/>
		<path class="st0" d="M504.9,90.2l1.6,2.4L493.7,99c-5.7,2.9-10.3,4.2-14.3,4.2c-11.7,0-14.4-10.9-14.4-18.2
			c0-16.2,17.7-33.6,37.6-33.6c6.5,0,9.4,3,9.4,8.9c0,9.7-15.6,19.6-35.6,15.6c-2.9,10.3-0.1,21,10.6,21
			C492.2,96.9,499,93.7,504.9,90.2z M477.3,73.5c21.4,3.3,26-9.2,26-15.1c0-2.7-2.2-4.6-4-4.6C489.8,53.8,479.1,66.3,477.3,73.5z"/>
		<g>
			<path class="st0" d="M191.6,60.2l-0.7-1.9l21.8-6.9c2.4,0.2,2.1,1.9,1.4,4.2L201.8,102h-11.1l10.8-39.7c0.6-1.7,1.4-4-1.5-4
				c-1,0-2,0.2-3.1,0.6L191.6,60.2z"/>
			<path class="st0" d="M210,42.1c-3.5,0-5-2.7-4.6-5.2c0.4-2.5,2.6-5.2,6.6-5.2c3.8,0,5.2,2.6,4.7,5.2
				C216.2,39.4,213.8,42.1,210,42.1z"/>
		</g>
		<g>
			<path class="st0" d="M0.9,60.2l-0.8-1.9L22,51.4c2.4,0.2,2.1,1.9,1.4,4.2L11.1,102H0l10.8-39.7c0.6-1.7,1.4-4-1.4-4
				c-1.1,0-2.1,0.2-3.1,0.6L0.9,60.2z"/>
			<path class="st0" d="M19.3,42.1c-3.5,0-5.1-2.7-4.7-5.2c0.4-2.5,2.6-5.2,6.6-5.2c3.7,0,5.2,2.6,4.7,5.2
				C25.5,39.4,23.1,42.1,19.3,42.1z"/>
		</g>
		<g>
			<path class="st0" d="M115.6,102l10.8-39.7c0.5-1.7,1.2-4-1.6-4c-1,0-2,0.2-3.1,0.6l-5.4,1.4l-0.8-1.9l22-6.9
				c2.3,0.2,1.9,1.9,1.3,4.2l-5,17.6l0.3,0.2c6.7-9.1,18.4-22,29.7-22c6.1,0,8.9,2.5,6.1,11.4L158,102h-10.7l10.8-34.7
				c1.3-4.4,3.3-9.9-1.7-9.9c-9.1,0-24.2,21.2-28.1,37.3l-1.9,7.3L115.6,102L115.6,102z"/>
		</g>
		<g>
			<path class="st0" d="M42.3,102l10.8-39.7c0.5-1.7,1.2-4-1.6-4c-1,0-2,0.2-3.1,0.6L43,60.2l-0.7-1.9l21.9-6.9
				c2.3,0.2,1.9,1.9,1.4,4.2l-4.9,17.6l0.2,0.2c6.7-9.1,18.4-22,29.7-22c6.2,0,9,2.5,6.2,11.4l-12,39.2H74l10.8-34.7
				c1.3-4.4,3.3-9.9-1.7-9.9C74,57.4,59,78.6,55,94.7l-1.9,7.3L42.3,102L42.3,102z"/>
		</g>
		<g>
			<path class="st0" d="M360.3,102h-10.6l10.5-39.7c0.6-1.7,1.3-4-1.5-4c-1.1,0-2,0.2-3.2,0.6l-5.3,1.4l-0.7-1.9l21.8-6.9
				c2.4,0.2,2,1.9,1.4,4.2L368.3,68h0.2c8.4-12,15.3-16.6,23.5-16.6l-2,8.8l-3.1,1.4c-1.4-0.9-3-1.7-4-1.7c-2,0-4.2,0.6-5.9,1.8
				c-4.9,3.7-9.8,13.9-11.9,22.1L360.3,102z"/>
		</g>
		<g>
			<path class="st0" d="M273.8,53.1l-2.5,9.7h-2.9c-0.3-4.4-3.1-8.7-9.6-8.7c-3.2,0-9.4,2.3-9.4,7.7c0,4.3,4.3,7.3,10.4,12
				c4.6,3.6,10,8.1,10,14.6c0,7.5-11.3,14.8-23.6,14.8c-6.9,0-12.1-1-16.1-2.8l2.6-10.9h2.9c-1.7,6.9,4.9,11,11.5,10.9
				c7.6-0.1,11.9-5.7,11.9-8.8c0-5.4-2.3-7.8-9.2-12.9c-6.5-4.7-11.1-9.1-9.8-15.8c1.3-6.9,10.8-11.5,18.3-11.5
				C262.9,51.4,268.5,51.6,273.8,53.1z"/>
		</g>
	</g>
</g>
</svg>
